# Blender v2.93.4 OBJ File: 'museum dinding.blend'
# www.blender.org
mtllib wall-obj.mtl
o Cube
v 30.000000 5.000000 -10.000000
v 30.000000 -5.000000 -10.000000
v 30.000000 5.000000 10.000000
v 30.000000 -5.000000 10.000000
v -30.000000 5.000000 -10.000000
v -30.000000 -5.000000 -10.000000
v -30.000000 5.000000 10.000000
v -30.000000 -5.000000 10.000000
v 29.700001 5.000000 -9.900000
v 29.700001 -5.000000 -9.900000
v 29.700001 5.000000 9.900000
v 29.700001 -5.000000 9.900000
v -29.700001 5.000000 -9.900000
v -29.700001 -5.000000 -9.900000
v -29.700001 5.000000 9.900000
v -29.700001 -5.000000 9.900000
vt 1.000099 0.000000
vt 1.000099 1.000000
vt -0.000099 1.000000
vt -0.000099 0.000000
vt 0.125000 0.000000
vt 0.125000 1.000000
vt 0.875000 1.000000
vt 0.875000 0.000000
vt 0.875000 0.000000
vt 0.875000 1.000000
vt 0.125000 1.000000
vt 0.125000 0.000000
vt 0.125000 0.000000
vt 0.125000 1.000000
vt 1.000099 0.000000
vt -0.000099 0.000000
vt -0.000099 1.000000
vt 1.000099 1.000000
vt 0.125000 0.000000
vt 0.875000 0.000000
vt 0.875000 1.000000
vt 0.125000 1.000000
vt 0.875000 0.000000
vt 0.125000 0.000000
vt 0.125000 1.000000
vt 0.875000 1.000000
vt 0.125000 0.000000
vt 0.125000 1.000000
vn 0.0000 0.0000 1.0000
vn -1.0000 0.0000 0.0000
vn 1.0000 0.0000 0.0000
vn 0.0000 0.0000 -1.0000
vn 0.0000 -1.0000 0.0000
vn 0.0000 1.0000 0.0000
g Cube_Cube_Material
usemtl Material
s off
f 4/1/1 3/2/1 7/3/1 8/4/1
f 8/5/2 7/6/2 5/7/2 6/8/2
f 2/9/3 1/10/3 3/11/3 4/12/3
f 6/13/4 5/14/4 1/10/4 2/9/4
f 12/15/4 16/16/4 15/17/4 11/18/4
f 16/19/3 14/20/3 13/21/3 15/22/3
f 10/23/2 12/24/2 11/25/2 9/26/2
f 14/27/1 10/23/1 9/26/1 13/28/1
f 8/5/5 6/8/5 14/20/5 16/19/5
f 6/13/5 2/9/5 10/23/5 14/27/5
f 7/3/6 3/2/6 11/18/6 15/17/6
f 3/11/6 1/10/6 9/26/6 11/25/6
f 4/1/5 8/4/5 16/16/5 12/15/5
f 5/7/6 7/6/6 15/22/6 13/21/6
f 1/10/6 5/14/6 13/28/6 9/26/6
f 2/9/5 4/12/5 12/24/5 10/23/5
